<svg width="17" height="16" viewBox="0 0 17 16" fill="none" xmlns="http://www.w3.org/2000/svg">
<g id="Icons">
<path id="Vector" d="M8.24045 14C7.74436 14 7.28076 13.9531 6.84963 13.8593C6.41851 13.7654 6.01986 13.6247 5.6537 13.4371C6.03168 12.0414 6.54843 10.6898 7.20398 9.38215C7.85953 8.07449 8.74244 6.98087 9.85274 6.10128C8.52983 6.73458 7.38115 7.61417 6.40669 8.74005C5.43224 9.86593 4.76783 11.1443 4.41348 12.5751C4.36624 12.5282 4.32194 12.4871 4.2806 12.4519C4.23926 12.4167 4.19497 12.3757 4.14772 12.3288C3.6162 11.801 3.2087 11.197 2.92522 10.5168C2.64174 9.83661 2.5 9.12121 2.5 8.37062C2.5 7.5614 2.65355 6.7815 2.96065 6.03091C3.26776 5.28033 3.71069 4.6177 4.28946 4.04304C5.19896 3.11654 6.38012 2.51548 7.83295 2.23988C9.28578 1.96427 11.4591 1.92616 14.353 2.12553C14.5774 4.91676 14.5449 7.0571 14.2555 8.54654C13.9661 10.036 13.349 11.2498 12.404 12.188C11.8371 12.7744 11.1934 13.223 10.4728 13.5338C9.75234 13.8446 9.00821 14 8.24045 14Z" fill="#07412A"/>
</g>
</svg>
